<?xml version="1.0" encoding="utf-8"?>
<!-- Generator: Adobe Illustrator 26.1.0, SVG Export Plug-In . SVG Version: 6.00 Build 0)  -->
<svg version="1.1" xmlns="http://www.w3.org/2000/svg" xmlns:xlink="http://www.w3.org/1999/xlink" x="0px" y="0px"
	 viewBox="0 0 504.1 504.1" style="enable-background:new 0 0 504.1 504.1;" xml:space="preserve">
<g id="Layer_1">
	<g>
		<path style="fill:#6B8C85;" d="M228.2,361.9c0,19.5-15.8,124.7-35.3,124.7c-19.5,0-35.3-105.2-35.3-124.7s15.8-35.3,35.3-35.3
			C212.4,326.6,228.2,342.4,228.2,361.9z"/>
		<path style="fill:#6B8C85;" d="M346.6,361.9c0,19.5-15.8,124.7-35.3,124.7c-19.5,0-35.3-105.2-35.3-124.7s15.8-35.3,35.3-35.3
			C330.8,326.6,346.6,342.4,346.6,361.9z"/>
	</g>
	<path d="M351.7,315.2c0,126.3-44.6,84.3-99.6,84.3c-55,0-99.6,42.1-99.6-84.3c0-72.2,44.6-130.8,99.6-130.8
		C307.1,184.5,351.7,243,351.7,315.2z"/>
	<path style="fill:#C90D59;" d="M232.6,487.2c0,14.9-17.8,16.9-39.7,16.9s-39.7-2-39.7-16.9s17.8-35.5,39.7-35.5
		S232.6,472.3,232.6,487.2z"/>
	<path style="fill:#AA0B53;" d="M232.6,487.2c0,14.9-17.8,16.9-39.7,16.9s-39.7-2-39.7-16.9"/>
	<path d="M381,124.3c0,63-57.7,94.7-128.9,94.7c-71.2,0-129-31.7-129-94.7c0-63,57.8-124.3,129-124.3C323.3,0,381,61.2,381,124.3z"
		/>
	<path style="fill:#F9BD82;" d="M381,124.3c0,63-57.7,94.7-128.9,94.7c-71.2,0-129-31.7-129-94.7c0-63,57.8-59.9,129-59.9
		C323.3,64.3,381,61.2,381,124.3z"/>
	<path style="fill:#EDA366;" d="M381,124.3c0,63-57.7,94.7-128.9,94.7c-71.2,0-129-31.7-129-94.7"/>
	<circle style="fill:#113E49;" cx="190.7" cy="138" r="11.5"/>
	<path d="M202.3,138c0,6.4-5.2,11.5-11.5,11.5s-11.5-5.2-11.5-11.5"/>
	<path style="fill:#FFD3C5;" d="M213.5,162c-0.6,0-1.2-0.2-1.7-0.7c-5.6-5.6-13.1-8.7-21-8.7h0c-7.9,0-15.4,3.1-21,8.7
		c-1,1-2.5,1-3.4,0c-1-0.9-1-2.5,0-3.4c6.5-6.5,15.2-10.2,24.5-10.2h0c9.3,0,18,3.6,24.5,10.1c0.9,0.9,0.9,2.5,0,3.4
		C214.8,161.8,214.1,162,213.5,162z"/>
	<circle style="fill:#113E49;" cx="313.4" cy="138" r="11.5"/>
	<path d="M301.9,138c0,6.4,5.2,11.5,11.5,11.5c6.4,0,11.5-5.2,11.5-11.5"/>
	<path style="fill:#FFD3C5;" d="M290.6,162c0.6,0,1.2-0.2,1.7-0.7c5.6-5.6,13.1-8.7,21-8.7h0c7.9,0,15.4,3.1,21,8.7
		c0.9,1,2.5,1,3.4,0c1-0.9,1-2.5,0-3.4c-6.5-6.5-15.2-10.2-24.5-10.2h0c-9.2,0-17.9,3.6-24.5,10.1c-0.9,0.9-0.9,2.5,0,3.4
		C289.4,161.8,290,162,290.6,162z"/>
	<path style="fill:#AA1111;" d="M223.6,194.6c0-3.6,12.7-15.9,28.4-15.9s28.4,12.3,28.4,15.9c0,3.6-12.7,1.5-28.4,1.5
		S223.6,198.3,223.6,194.6z"/>
	<path style="fill:#EDA366;" d="M345.3,291.6c4.7-14.3-9.9-32-32.6-39.5c-22.7-7.5-138.4-32.7-143.2-18.4
		c-4.7,14.3,103.4,62.8,126.1,70.3C318.3,311.5,340.6,306,345.3,291.6z"/>
	<path style="fill:#F9BD82;" d="M158.8,291.6c-4.7-14.3,9.9-32,32.6-39.5c22.7-7.5,138.4-32.7,143.2-18.4
		c4.7,14.3-103.4,62.8-126.1,70.3C185.8,311.5,163.5,306,158.8,291.6z"/>
	<path style="fill:#7A4E0E;" d="M296.4,240.6c-0.9-3.3-1.4-6.4-1.9-9.5c-2.2,0.3-4.5,0.6-6.8,0.9c0.4,4.5,1.1,9.5,2.5,14.7
		c1.7,6.5,4,12.3,6.4,16.9c2.5-1.4,5-2.7,7.3-4.1C301,254.7,298.3,248.1,296.4,240.6z"/>
	<circle style="fill:#38494C;" cx="291.3" cy="240.6" r="13.6"/>
	<circle style="fill:#A3E1EF;" cx="290.3" cy="239" r="7.6"/>
	<path d="M196.3,108.9c0,5.1-4.1,9.2-9.1,9.2h-51.2c-5.1,0-9.2-4.1-9.2-9.2l0,0c0-5.1,4.1-9.1,9.2-9.1h51.2
		C192.2,99.8,196.3,103.9,196.3,108.9L196.3,108.9z"/>
	<path d="M307.8,108.9c0,5.1,4.1,9.2,9.2,9.2h51.2c5,0,9.1-4.1,9.1-9.2l0,0c0-5.1-4.1-9.1-9.1-9.1H317
		C311.9,99.8,307.8,103.9,307.8,108.9L307.8,108.9z"/>
	<path d="M218.2,108.9c0,5.1,4.1,9.2,9.2,9.2h51.2c5,0,9.2-4.1,9.2-9.2l0,0c0-5.1-4.1-9.1-9.2-9.1h-51.2
		C222.3,99.8,218.2,103.9,218.2,108.9L218.2,108.9z"/>
</g>
<g id="foot">
	<path style="fill:#C90D59;" d="M351,487.2c0,14.9-17.8,16.9-39.7,16.9s-39.7-2-39.7-16.9s17.8-35.5,39.7-35.5S351,472.3,351,487.2z
		"/>
	<path style="fill:#AA0B53;" d="M351,487.2c0,14.9-17.8,16.9-39.7,16.9s-39.7-2-39.7-16.9"/>
</g>
<g id="glasses">
	<path d="M260.3,133.6c0,12.1,9.8,22,21.9,22h30.2c12.1,0,22-9.8,22-22v-11.9c0-12.1-9.8-22-22-22h-30.2c-12.1,0-21.9,9.8-21.9,22
		V133.6z"/>
	<path d="M243.9,133.6c0,12.1-9.8,22-21.9,22h-30.2c-12.1,0-22-9.8-22-22v-11.9c0-12.1,9.8-22,22-22h30.2c12.1,0,21.9,9.8,21.9,22
		L243.9,133.6L243.9,133.6z"/>
</g>
</svg>
