<?xml version="1.0" encoding="UTF-8"?>
<svg xmlns="http://www.w3.org/2000/svg" width="164.6" height="55.8" viewBox="0 0 164.6 55.8">
  <g id="uuid-10810c24-60d7-4af4-836a-eaf543df3ba8" data-name="Layer 1"/>
  <g id="uuid-60a9a419-0714-4add-8a89-05eec5ae37be" data-name="Layer 2">
    <g id="uuid-46997b4b-14a8-451d-ac90-b09a2004dc15" data-name="glasses">
      <path d="M90.5,33.8c0,12.1,9.8,22,21.9,22h30.2c12.1,0,22-9.8,22-22v-11.9c0-12.1-9.8-22-22-22h-30.2c-12.1,0-21.9,9.8-21.9,22v11.9Z"/>
      <path d="M74.1,33.8c0,12.1-9.8,22-21.9,22H22C9.8,55.8,0,46,0,33.8v-11.9C0,9.8,9.8,0,22,0h30.2c12.1,0,21.9,9.8,21.9,22v11.9h0Z"/>
    </g>
  </g>
</svg>